{"accessors":[{"bufferView":2,"componentType":5126,"count":17,"max":[70.71070098876953,100,70.71068572998047],"min":[-70.71067810058594,-100,-70.71067810058594],"type":"VEC3"},{"bufferView":2,"byteOffset":204,"componentType":5126,"count":17,"max":[0.8164966106414795,0.5773503184318542,0.8164966702461243],"min":[-0.8164966702461243,-1,-0.8164966106414795],"type":"VEC3"},{"bufferView":1,"componentType":5126,"count":17,"max":[0,0],"min":[0,0],"type":"VEC2"},{"bufferView":0,"componentType":5125,"count":24,"max":[16],"min":[0],"type":"SCALAR"},{"bufferView":2,"byteOffset":408,"componentType":5126,"count":26,"max":[176.59837341308594,48.61445617675781,48.61445617675781],"min":[-176.59837341308594,-48.61445617675781,-48.61445617675781],"type":"VEC3"},{"bufferView":2,"byteOffset":720,"componentType":5126,"count":26,"max":[1,1,1],"min":[-1,-1,-1],"type":"VEC3"},{"bufferView":3,"componentType":5126,"count":26,"max":[1,1,1,1],"min":[1,1,1,1],"type":"VEC4"},{"bufferView":1,"byteOffset":136,"componentType":5126,"count":26,"max":[0.7849582433700562,0.9999898672103882],"min":[0.000138014554977417,0.000010073184967041016],"type":"VEC2"},{"bufferView":1,"byteOffset":344,"componentType":5126,"count":26,"max":[0.7849582433700562,0.9999898672103882],"min":[0.000138014554977417,0.000010073184967041016],"type":"VEC2"},{"bufferView":1,"byteOffset":552,"componentType":5126,"count":26,"max":[0.7849582433700562,0.9999898672103882],"min":[0.000138014554977417,0.000010073184967041016],"type":"VEC2"},{"bufferView":0,"byteOffset":96,"componentType":5125,"count":36,"max":[25],"min":[0],"type":"SCALAR"},{"bufferView":2,"byteOffset":1032,"componentType":5126,"count":24,"max":[84.2251968383789,88.06253814697266,84.2251968383789],"min":[-84.2251968383789,-88.06253814697266,-84.2251968383789],"type":"VEC3"},{"bufferView":2,"byteOffset":1320,"componentType":5126,"count":24,"max":[1,1,1],"min":[-1,-1,-1],"type":"VEC3"},{"bufferView":1,"byteOffset":760,"componentType":5126,"count":24,"max":[0,0],"min":[0,0],"type":"VEC2"},{"bufferView":0,"byteOffset":240,"componentType":5125,"count":36,"max":[23],"min":[0],"type":"SCALAR"},{"bufferView":2,"byteOffset":1608,"componentType":5126,"count":22,"max":[405.5291442871094,61.22834396362305,330.6291198730469],"min":[297.1983642578125,11.807079315185547,209.38555908203125],"type":"VEC3"},{"bufferView":2,"byteOffset":1872,"componentType":5126,"count":22,"max":[0.4976375997066498,0.995274543762207,0.8660252690315247],"min":[-0.995274543762207,-0.995274543762207,-0.8660255670547485],"type":"VEC3"},{"bufferView":3,"byteOffset":416,"componentType":5126,"count":22,"max":[1,1,1,1],"min":[1,1,1,1],"type":"VEC4"},{"bufferView":1,"byteOffset":952,"componentType":5126,"count":22,"max":[0.9821637868881226,0.9998267292976379],"min":[0.000025339546482427977,0.00019401576719246805],"type":"VEC2"},{"bufferView":1,"byteOffset":1128,"componentType":5126,"count":22,"max":[0.9821637868881226,0.9998267292976379],"min":[0.000025339546482427977,0.00019401576719246805],"type":"VEC2"},{"bufferView":1,"byteOffset":1304,"componentType":5126,"count":22,"max":[0.9821637868881226,0.9998267292976379],"min":[0.000025339546482427977,0.00019401576719246805],"type":"VEC2"},{"bufferView":0,"byteOffset":384,"componentType":5125,"count":36,"max":[21],"min":[0],"type":"SCALAR"}],"asset":{"extras":{"author":"rismaningsih (https://sketchfab.com/rismaningsih)","license":"CC-BY-4.0 (http://creativecommons.org/licenses/by/4.0/)","source":"https://sketchfab.com/3d-models/bangun-ruang-sisi-datar-65dc2c02987448509a3533055ed409d7","title":"Bangun Ruang Sisi Datar"},"generator":"Sketchfab-7.51.0","version":"2.0"},"bufferViews":[{"buffer":0,"byteLength":528,"byteOffset":0,"name":"floatBufferViews","target":34963},{"buffer":0,"byteLength":1480,"byteOffset":528,"byteStride":8,"name":"floatBufferViews","target":34962},{"buffer":0,"byteLength":2136,"byteOffset":2008,"byteStride":12,"name":"floatBufferViews","target":34962},{"buffer":0,"byteLength":768,"byteOffset":4144,"byteStride":16,"name":"floatBufferViews","target":34962}],"buffers":[{"byteLength":4912,"uri":"data:application/octet-stream;base64,"}],"extensionsRequired":["KHR_materials_pbrSpecularGlossiness"],"extensionsUsed":["KHR_materials_pbrSpecularGlossiness"],"images":[{"uri":"data:application/octet-stream;base64,"},{"uri":"data:application/octet-stream;base64,"},{"uri":"data:application/octet-stream;base64,"},{"uri":"data:application/octet-stream;base64,"},{"uri":"data:application/octet-stream;base64,"},{"uri":"data:application/octet-stream;base64,"},{"uri":"data:application/octet-stream;base64,"}],"materials":[{"doubleSided":true,"emissiveFactor":[0,0,0],"extensions":{"KHR_materials_pbrSpecularGlossiness":{"diffuseFactor":[1,1,1,1],"diffuseTexture":{"index":0,"texCoord":0},"glossinessFactor":1,"specularFactor":[1,1,1],"specularGlossinessTexture":{"index":1,"texCoord":1}}},"name":"material"},{"doubleSided":true,"emissiveFactor":[0,0,0],"extensions":{"KHR_materials_pbrSpecularGlossiness":{"diffuseFactor":[1,1,1,1],"diffuseTexture":{"index":2,"texCoord":0},"glossinessFactor":1,"specularFactor":[1,1,1],"specularGlossinessTexture":{"index":3,"texCoord":0}}},"name":"material_1"},{"doubleSided":true,"emissiveFactor":[0,0,0],"extensions":{"KHR_materials_pbrSpecularGlossiness":{"diffuseFactor":[1,1,1,1],"diffuseTexture":{"index":4,"texCoord":0},"glossinessFactor":1,"specularFactor":[1,1,1],"specularGlossinessTexture":{"index":1,"texCoord":1}}},"name":"material_2"},{"doubleSided":true,"emissiveFactor":[0,0,0],"extensions":{"KHR_materials_pbrSpecularGlossiness":{"diffuseFactor":[1,1,1,1],"diffuseTexture":{"index":5,"texCoord":0},"glossinessFactor":1,"specularFactor":[1,1,1],"specularGlossinessTexture":{"index":6,"texCoord":0}}},"name":"material_3"}],"meshes":[{"primitives":[{"attributes":{"NORMAL":1,"POSITION":0,"TEXCOORD_0":2,"TEXCOORD_1":2},"indices":3,"material":0,"mode":4}]},{"primitives":[{"attributes":{"COLOR_0":6,"NORMAL":5,"POSITION":4,"TEXCOORD_0":7,"TEXCOORD_1":8,"TEXCOORD_2":9},"indices":10,"material":1,"mode":4}]},{"primitives":[{"attributes":{"NORMAL":12,"POSITION":11,"TEXCOORD_0":13,"TEXCOORD_1":13},"indices":14,"material":2,"mode":4}]},{"primitives":[{"attributes":{"COLOR_0":17,"NORMAL":16,"POSITION":15,"TEXCOORD_0":18,"TEXCOORD_1":19,"TEXCOORD_2":20},"indices":21,"material":3,"mode":4}]}],"nodes":[{"children":[1],"name":"RootNode (gltf orientation matrix)","rotation":[-0.7071067811865475,0,0,0.7071067811865476]},{"children":[2],"name":"RootNode (model correction matrix)"},{"children":[3],"name":"root"},{"children":[4],"matrix":[1,0,0,0,0,2.220446049250313e-16,1,0,0,-1,2.220446049250313e-16,0,0,0,0,1],"name":"GLTF_SceneRootNode"},{"children":[5,7,9,11],"name":"root_4"},{"children":[6],"matrix":[0.0007869513718218718,-0.0003673028434626934,0.0005693542550006583,0,-3.392208624210878e-11,0.0008726175646135509,0.0005629446633936364,0,-0.0006775511372386582,-0.0004266090416555587,0.0006612843929339122,0,0.2452651709318161,0.026241257786750793,0.19339096546173096,1],"name":"_0"},{"mesh":0,"name":""},{"children":[8],"matrix":[0.001000074889255887,-0.00010266790729369566,0.00026014923564604065,0,-0.000007263320645535612,0.0009560834932730803,0.0004052403067062857,0,-0.000279581058314912,-0.0003920864226393685,0.0009200384650267818,0,-0.05710309371352196,0.014088552445173264,0.19339101016521454,1],"name":"_1"},{"mesh":1,"name":""},{"children":[10],"matrix":[0.0009712694062490061,0.00012625742507269173,-0.0003450549394142581,0,0.000019538717506151886,0.0009560833055945569,0.0004048340102232753,0,0.0003669088264776255,-0.00038513825256985656,0.0008918601614466864,0,-0.3772779107093811,0.011814532801508904,0.19339101016521454,1],"name":"_2"},{"mesh":2,"name":""},{"children":[12],"matrix":[-0.0007504235780170634,-0.00028788355912167025,0.0006575360703453564,0,0.00004719386557289884,-0.0038256850205575683,-0.0016211071580803805,0,0.0007176991706822962,-0.0002852985381553178,0.0006941757899109431,0,0.46829748153686523,0.30900833010673523,-0.10511680692434311,1],"name":"_3"},{"mesh":3,"name":""}],"samplers":[{"magFilter":9729,"minFilter":9987,"wrapS":10497,"wrapT":10497}],"scene":0,"scenes":[{"name":"OSG_Scene","nodes":[0]}],"textures":[{"sampler":0,"source":0},{"sampler":0,"source":1},{"sampler":0,"source":2},{"sampler":0,"source":3},{"sampler":0,"source":4},{"sampler":0,"source":5},{"sampler":0,"source":6}]}